{"title":"Dhokha Dhadi Song ft. Shahid Kapoor &amp; Sonakshi Sinha - R...R","uid":9255012,"size":65144361,"categoryP":"video","categoryS":"music_videos","magnet":"?xt=urn:btih:4e3c3c01ecdb2244a9b187ea3e7c35d747ca80c8&amp;dn=Dhokha+Dhadi+Song+ft.+Shahid+Kapoor+%26amp%3B+Sonakshi+Sinha+-+R...R&amp;tr=udp%3A%2F%2Ftracker.openbittorrent.com%3A80&amp;tr=udp%3A%2F%2Fopen.demonii.com%3A1337&amp;tr=udp%3A%2F%2Ftracker.coppersurfer.tk%3A6969&amp;tr=udp%3A%2F%2Fexodus.desync.com%3A6969","seeders":1,"leechers":0,"uploader":"Palash995","files":1,"time":1385536443,"description":"\n\nCheck out the sizzling chemistry of Shahid Kapoor &amp; Sonakshi Sinha is this romantic song 'Dhokha Dhadi' from R...Rajkumar. The song is sung by Arijit Singh &amp; Palak Muchhal.\n\nMusic: Pritam\nLyrics: Nilesh Mishra &amp; Swanand Kirkire\n\nEros International &amp; Next Gen Films presents 'R...Rajkumar' a film directed by Prabhu Dheva featuring Shahid Kapoor &amp; Sonakshi Sinha in the lead roles. The film is produced by Sunil Lulla &amp; Viki Rajani.\n\nR...Rajkumar releases in theatres on 6th December, 2013.\nScreenshots:-\n\n\n\n\n\nDhokha Dhadi Lyrics:\n\nUd gaye tote re, tere toh Ud gaye tote re\nLa la la la\nUd gaye tote re, tere toh Ud gaye tote re\n\nTeri ankhon se, hui yaarian\nChalte chalte yu hi, \nMeri ankhon ne, teri ankhon se\nApbitee kahin.\nTeri ankhon ke piche piche hum\nPagle se chal pade\nMeri ankhein ab\nDil ke chakkar mein\nKuch bhi na sunti hai,\nDil yeh dhokadadi kar dega\nSocha na tha\nItni eh gabadi kar dega\nSocha na tha\nAise muhskil khadi kar dega\nSocha na tha\n\nHo te dil farebi hai\nAur hum sarphire bhi hai\nPyaar vyaar hum nahi jante\nSidhe sadhe lagte ho\nPhir kyun aise thagte ho\nLaagte hai kya nadan se\nIse toh maaf kijiye walla\nYeh dil jarasa hai nithalla\nIrade hai baimaan se\nDil yeh dhokadadi kar dega\nSocha na tha\nItni yeh gadbadi kar dega\nSocha na tha\nAise mushkil khadi kar dega\nSocha na tha\n\nUd gaye tote re, tere toh Ud gaye tote re\nLa la la la\n\nMedia Info:-\n\nGeneral\nComplete name                            : Dhokha Dhadi Song ft. Shahid Kapoor &amp; Sonakshi Sinha - R...Rajkumar HD 1080p {DAKU RG} {GreatPalash}.mp4\nFormat                                   : MPEG-4\nFormat profile                           : Base Media\nCodec ID                                 : isom\nFile size                                : 62.1 MiB\nDuration                                 : 2mn 6s\nOverall bit rate mode                    : Variable\nOverall bit rate                         : 4 111 Kbps\nWriting application                      : Lavf53.31.100\n\nVideo\nID                                       : 1\nFormat                                   : AVC\nFormat/Info                              : Advanced Video Codec\nFormat profile                           : &lt;a class=&quot;__cf_email__&quot; href=&quot;/cdn-cgi/l/email-protection&quot; data-cfemail=&quot;cb83a2aca38b87ffe5fa&quot;&gt;[email&amp;#160;protected]&lt;/a&gt;&lt;script cf-hash='f9e31' type=&quot;text/javascript&quot;&gt;\n/* &lt;![CDATA[ */!function(){try{var t=&quot;currentScript&quot;in document?document.currentScript:function(){for(var t=document.getElementsByTagName(&quot;script&quot;),e=t.length;e--;)if(t[e].getAttribute(&quot;cf-hash&quot;))return t[e]}();if(t&amp;&amp;t.previousSibling){var e,r,n,i,c=t.previousSibling,a=c.getAttribute(&quot;data-cfemail&quot;);if(a){for(e=&quot;&quot;,r=parseInt(a.substr(0,2),16),n=2;a.length-n;n+=2)i=parseInt(a.substr(n,2),16)^r,e+=String.fromCharCode(i);e=document.createTextNode(e),c.parentNode.replaceChild(e,c)}}}catch(u){}}();/* ]]&gt; */&lt;/script&gt;\nFormat settings, CABAC                   : Yes\nFormat settings, ReFrames                : 3 frames\nCodec ID                                 : avc1\nCodec ID/Info                            : Advanced Video Coding\nDuration                                 : 2mn 6s\nBit rate mode                            : Variable\nBit rate                                 : 3 851 Kbps\nMaximum bit rate                         : 19.2 Mbps\nWidth                                    : 1 920 pixels\nHeight                                   : 1 080 pixels\nDisplay aspect ratio                     : 16:9\nFrame rate mode                          : Constant\nFrame rate                               : 25.000 fps\nStandard                                 : PAL\nColor space                              : YUV\nChroma subsampling                       : 4:2:0\nBit depth                                : 8 bits\nScan type                                : Progressive\nBits/(Pixel*Frame)                       : 0.074\nStream size                              : 58.2 MiB (94%)\nColor primaries                          : BT.709\nTransfer characteristics                 : BT.709\nMatrix coefficients                      : BT.709\n\nAudio\nID                                       : 2\nFormat                                   : AAC\nFormat/Info                              : Advanced Audio Codec\nFormat profile                           : LC\nCodec ID                                 : 40\nDuration                                 : 2mn 6s\nBit rate mode                            : Constant\nBit rate                                 : 254 Kbps\nChannel(s)                               : 2 channels\nChannel positions                        : Front: L R\nSampling rate                            : 44.1 KHz\nCompression mode                         : Lossy\nStream size                              : 3.83 MiB (6%)\n\n[IMG]http://imageshack.us/a/img89/4822/zka.gif[/IMG]\n\n[IMG]http://imageshack.us/a/img200/185/tj8.gif[/IMG]\n\n[IMG]http://imageshack.us/a/img593/9603/ua8.gif[/IMG]\n\n[IMG]http://imageshack.us/a/img707/5608/ysmp.png[/IMG][/b][/center]","torrent":{"xt":"urn:btih:4e3c3c01ecdb2244a9b187ea3e7c35d747ca80c8","amp;dn":"Dhokha+Dhadi+Song+ft.+Shahid+Kapoor+%26amp%3B+Sonakshi+Sinha+-+R...R","amp;tr":["udp%3A%2F%2Ftracker.openbittorrent.com%3A80","udp%3A%2F%2Fopen.demonii.com%3A1337","udp%3A%2F%2Ftracker.coppersurfer.tk%3A6969","udp%3A%2F%2Fexodus.desync.com%3A6969"],"infoHash":"4e3c3c01ecdb2244a9b187ea3e7c35d747ca80c8","infoHashBuffer":{"type":"Buffer","data":[78,60,60,1,236,219,34,68,169,177,135,234,62,124,53,215,71,202,128,200]},"announce":[],"urlList":[]}}